# xmcd
#
# Track frame offsets: 
#        150
#        14252
#        34060
#        54977
#        71862
#        90115
#        108727
#        125077
#        146152
#        170495
#
# Disc length: 2566 seconds
#
# Revision: 0
# Processed by: cddbd v1.5.2PL0 Copyright (c) Steve Scherf et al.
# Submitted via: ExactAudioCopy v1.0b3
#
DISCID=8a0a040a
DTITLE=Various Artist - Mua Xuan Yeu Em
DYEAR=1992
DGENRE=
TTITLE0=Kieu Nga - Bai ca ngoi mua Xuan [chacha]
TTITLE1=My Lan - Neu Xuan nay em lay chong [slow rock]
TTITLE2=Son Tuyen - Noi long mua Xuan [slow]
TTITLE3=Trung Hanh, Thuy Vi - Vui ca trong nang Xuan [bebop]
TTITLE4=Don Ho - Mua Xuan goi [newave]
TTITLE5=Lam Thuy Van, Sy Dan - Mua Xuan yeu em [slow]
TTITLE6=Nini - Nhac khuc tinh Xuan [chacha]
TTITLE7=Y Nhi - Mua Xuan tinh yeu [bebop]
TTITLE8=Ngoc Huong - Nho ve mot mua Xuan [slow]
TTITLE9=My Lan - Nhung canh en mua Xuan [slow rap]
EXTD=
EXTT0=
EXTT1=
EXTT2=
EXTT3=
EXTT4=
EXTT5=
EXTT6=
EXTT7=
EXTT8=
EXTT9=
PLAYORDER=
